<svg xmlns="http://www.w3.org/2000/svg" viewBox="0 0 256 256" fill="none">
  <rect width="256" height="256" rx="28" fill="#95BF47"/>
  <path d="M195.998 53.672c-.321-.003-.643.07-.934.215l-41.727 20.863c-2.932-8.478-8.125-16.303-14.367-20.545-4.855-3.302-10.287-4.642-15.93-3.949-1.116-1.488-2.296-2.9-3.538-4.23-7.65-8.198-17.44-12.186-28.395-11.54-21.49 1.27-42.67 19.17-59.69 50.402-11.94 21.893-21.04 49.438-23.61 70.816-16.65 5.165-28.27 8.77-28.51 8.85C-24.89 166-25.44 166.3-25.6 170.7l-3.22 99.01L128.4 256l31.594-7.888c-.004.021 36.005-9.922 36.005-9.922V53.672zm-47.18 28.29l-27.78 8.605c2.684-10.32 7.754-20.63 13.975-27.384 2.302-2.501 5.502-5.292 9.27-6.846 3.64 7.435 4.636 17.424 4.535 25.625zm-20.57-37.107c3.03 0 5.56.635 7.73 1.905-3.498 1.74-6.855 4.526-9.9 7.84-8.266 8.99-14.61 22.97-17.142 36.48l-22.254 6.895c4.4-21.14 21.94-51.35 41.566-53.12zM105.2 128.392c.869 14.32 38.52 17.443 40.626 51.006 1.66 26.38-14.014 44.413-36.6 45.835-27.118 1.706-42.078-14.289-42.078-14.289l5.754-24.423s15.044 11.362 27.088 10.603c7.87-.496 10.68-6.888 10.384-11.404-1.134-18.662-31.816-17.564-33.76-48.27-1.636-25.82 15.32-51.965 52.776-54.316 14.432-.905 21.82 2.764 21.82 2.764l-8.582 32.108s-9.532-4.55-20.845-3.685c-16.545 1.267-16.726 11.67-16.583 14.07z" transform="translate(45 0) scale(.85)" fill="#FFF"/>
</svg>
