<svg xmlns="http://www.w3.org/2000/svg" viewBox="0 0 256 256" fill="none">
  <rect width="256" height="256" rx="28" fill="#880000"/>
  <path d="M128 36C78.2 36 38 76.2 38 126s40.2 90 90 90c12.4 0 24.3-2.5 35.1-7.1 5.5-2.3 9.6-7.3 10.8-13.2l8.1-40.7c1.5-7.3-4-14.1-11.5-14.1H138c-6.6 0-12 5.4-12 12v8c0 6.6 5.4 12 12 12h16.6l-4.6 23c-7 2.4-14.4 3.7-22 3.7-33.1 0-60-26.9-60-60s26.9-60 60-60c16.5 0 31.5 6.7 42.3 17.6 4.7 4.7 12.3 4.7 17 0l5.7-5.7c4.7-4.7 4.7-12.3 0-17C178.4 47.4 154.4 36 128 36z" fill="#FFF"/>
</svg>
